<mxfile host="app.diagrams.net" modified="2022-07-27T02:25:34.783Z" agent="5.0 (Macintosh; Intel Mac OS X 10_15_7) AppleWebKit/605.1.15 (KHTML, like Gecko) Version/15.5 Safari/605.1.15" etag="HyL7Lgc-jW1yaBXPZiDx" version="20.1.3" type="github">
  <diagram id="kI8k4z4wTUSqQwn5KaE8" name="第 1 页">
    <mxGraphModel dx="1426" dy="825" grid="1" gridSize="10" guides="1" tooltips="1" connect="1" arrows="1" fold="1" page="1" pageScale="1" pageWidth="827" pageHeight="1169" math="0" shadow="0">
      <root>
        <mxCell id="0" />
        <mxCell id="1" parent="0" />
        <mxCell id="iB8aDaws7fIr-BjEFYZY-1" value="" style="shape=ext;double=1;rounded=0;whiteSpace=wrap;html=1;fillColor=#f5f5f5;fontColor=#333333;strokeColor=#666666;" vertex="1" parent="1">
          <mxGeometry x="50" y="20" width="630" height="590" as="geometry" />
        </mxCell>
        <mxCell id="iB8aDaws7fIr-BjEFYZY-2" value="RPC" style="text;strokeColor=none;fillColor=none;html=1;fontSize=24;fontStyle=1;verticalAlign=middle;align=center;" vertex="1" parent="1">
          <mxGeometry x="50" y="30" width="100" height="40" as="geometry" />
        </mxCell>
        <mxCell id="iB8aDaws7fIr-BjEFYZY-10" style="edgeStyle=orthogonalEdgeStyle;rounded=0;orthogonalLoop=1;jettySize=auto;html=1;exitX=0.5;exitY=1;exitDx=0;exitDy=0;fontSize=18;" edge="1" parent="1" source="iB8aDaws7fIr-BjEFYZY-3" target="iB8aDaws7fIr-BjEFYZY-9">
          <mxGeometry relative="1" as="geometry" />
        </mxCell>
        <mxCell id="iB8aDaws7fIr-BjEFYZY-3" value="&lt;font style=&quot;font-size: 18px;&quot;&gt;getSeedPeer&lt;/font&gt;" style="shape=ext;double=1;rounded=1;whiteSpace=wrap;html=1;" vertex="1" parent="1">
          <mxGeometry x="130" y="110" width="120" height="80" as="geometry" />
        </mxCell>
        <mxCell id="iB8aDaws7fIr-BjEFYZY-16" style="edgeStyle=orthogonalEdgeStyle;rounded=0;orthogonalLoop=1;jettySize=auto;html=1;exitX=0.5;exitY=1;exitDx=0;exitDy=0;entryX=0.458;entryY=0.125;entryDx=0;entryDy=0;entryPerimeter=0;fontSize=18;" edge="1" parent="1" source="iB8aDaws7fIr-BjEFYZY-5" target="iB8aDaws7fIr-BjEFYZY-14">
          <mxGeometry relative="1" as="geometry" />
        </mxCell>
        <mxCell id="iB8aDaws7fIr-BjEFYZY-5" value="updateSeedPeer" style="shape=ext;double=1;rounded=1;whiteSpace=wrap;html=1;fontSize=18;" vertex="1" parent="1">
          <mxGeometry x="300" y="110" width="150" height="80" as="geometry" />
        </mxCell>
        <mxCell id="iB8aDaws7fIr-BjEFYZY-19" style="edgeStyle=orthogonalEdgeStyle;rounded=0;orthogonalLoop=1;jettySize=auto;html=1;exitX=0.5;exitY=1;exitDx=0;exitDy=0;entryX=0.5;entryY=0;entryDx=0;entryDy=0;fontSize=18;" edge="1" parent="1" source="iB8aDaws7fIr-BjEFYZY-6" target="iB8aDaws7fIr-BjEFYZY-18">
          <mxGeometry relative="1" as="geometry" />
        </mxCell>
        <mxCell id="iB8aDaws7fIr-BjEFYZY-6" value="createSeedPeer" style="shape=ext;double=1;rounded=1;whiteSpace=wrap;html=1;fontSize=18;" vertex="1" parent="1">
          <mxGeometry x="500" y="110" width="170" height="80" as="geometry" />
        </mxCell>
        <mxCell id="iB8aDaws7fIr-BjEFYZY-7" value="" style="endArrow=classic;html=1;rounded=0;fontSize=18;exitX=0.5;exitY=1;exitDx=0;exitDy=0;" edge="1" parent="1" source="iB8aDaws7fIr-BjEFYZY-9" target="iB8aDaws7fIr-BjEFYZY-8">
          <mxGeometry width="50" height="50" relative="1" as="geometry">
            <mxPoint x="390" y="450" as="sourcePoint" />
            <mxPoint x="440" y="400" as="targetPoint" />
          </mxGeometry>
        </mxCell>
        <mxCell id="iB8aDaws7fIr-BjEFYZY-8" value="DB find" style="shape=ext;double=1;rounded=1;whiteSpace=wrap;html=1;fontSize=18;" vertex="1" parent="1">
          <mxGeometry x="130" y="505" width="120" height="80" as="geometry" />
        </mxCell>
        <mxCell id="iB8aDaws7fIr-BjEFYZY-9" value="hit Cache?" style="shape=ext;double=1;rounded=1;whiteSpace=wrap;html=1;fontSize=18;" vertex="1" parent="1">
          <mxGeometry x="130" y="330" width="120" height="80" as="geometry" />
        </mxCell>
        <mxCell id="iB8aDaws7fIr-BjEFYZY-17" style="edgeStyle=orthogonalEdgeStyle;rounded=0;orthogonalLoop=1;jettySize=auto;html=1;exitX=0.5;exitY=1;exitDx=0;exitDy=0;fontSize=18;" edge="1" parent="1" source="iB8aDaws7fIr-BjEFYZY-14" target="iB8aDaws7fIr-BjEFYZY-15">
          <mxGeometry relative="1" as="geometry" />
        </mxCell>
        <mxCell id="iB8aDaws7fIr-BjEFYZY-14" value="DB update" style="shape=ext;double=1;rounded=1;whiteSpace=wrap;html=1;fontSize=18;" vertex="1" parent="1">
          <mxGeometry x="320" y="330" width="120" height="80" as="geometry" />
        </mxCell>
        <mxCell id="iB8aDaws7fIr-BjEFYZY-15" value="Clean Cache" style="shape=ext;double=1;rounded=1;whiteSpace=wrap;html=1;fontSize=18;" vertex="1" parent="1">
          <mxGeometry x="320" y="505" width="120" height="80" as="geometry" />
        </mxCell>
        <mxCell id="iB8aDaws7fIr-BjEFYZY-18" value="DB create" style="shape=ext;double=1;rounded=1;whiteSpace=wrap;html=1;fontSize=18;" vertex="1" parent="1">
          <mxGeometry x="525" y="330" width="120" height="80" as="geometry" />
        </mxCell>
      </root>
    </mxGraphModel>
  </diagram>
</mxfile>
